# xmcd
#
# Track frame offsets:
#        150
#        3957
#        26428
#        45214
#        67543
#        86542
#        104413
#        127350
#        148809
#        170851
#        188688
#        212639
#        228436
#        273231
#
# Disc length: 3977 seconds
#
# Revision: 1
# Processed by: cddbd v1.5.2PL0 Copyright (c) Steve Scherf et al.
# Submitted via: ExactAudioCopy v0.95a5
#
DISCID=b90f870e
DTITLE=Jackie Greene - American Myth
DYEAR=2006
DGENRE=Country
TTITLE0=(Intro)
TTITLE1=Hollywood
TTITLE2=So Hard to Find My Way
TTITLE3=Just as Well
TTITLE4=I'm So Gone
TTITLE5=Never Satisfied (Revisted)
TTITLE6=Love Song - 2:00 AM
TTITLE7=When You're Walking Away
TTITLE8=Gold Black Devil - 14 Miles
TTITLE9=Closer to You
TTITLE10=I'll Let You In
TTITLE11=Farewell, So Long, Goodbye
TTITLE12=Supersede
TTITLE13=Marigold
EXTD=
EXTT0=
EXTT1=
EXTT2=
EXTT3=
EXTT4=
EXTT5=
EXTT6=
EXTT7=
EXTT8=
EXTT9=
EXTT10=
EXTT11=
EXTT12=
EXTT13=
PLAYORDER=
